<?xml version="1.0" standalone="no"?>
<!DOCTYPE svg PUBLIC "-//W3C//DTD SVG 20010904//EN"
 "http://www.w3.org/TR/2001/REC-SVG-20010904/DTD/svg10.dtd">
<svg version="1.0" xmlns="http://www.w3.org/2000/svg"
 width="648.000000pt" height="166.000000pt" viewBox="0 0 648.000000 166.000000"
 preserveAspectRatio="xMidYMid meet">

<g transform="translate(0.000000,166.000000) scale(0.100000,-0.100000)"
fill="#000000" stroke="none">
<path d="M580 1654 c-14 -2 -56 -9 -95 -15 -38 -6 -76 -15 -85 -20 -8 -4 -60
-22 -115 -40 -55 -18 -142 -54 -193 -81 l-92 -50 0 -724 0 -724 3240 0 3240 0
0 275 0 275 -68 -6 c-69 -7 -232 19 -232 37 0 4 -17 13 -37 20 -45 14 -163 87
-163 100 0 5 -6 9 -13 9 -6 0 -32 19 -57 42 -182 170 -332 271 -471 319 -35
12 -68 25 -74 29 -19 16 -171 49 -275 61 -152 17 -382 7 -554 -26 -77 -14
-145 -30 -150 -34 -6 -5 -60 -23 -121 -41 -60 -18 -128 -41 -150 -51 -99 -45
-230 -99 -241 -99 -7 0 -19 -7 -28 -15 -8 -8 -34 -24 -58 -34 -49 -21 -329
-155 -369 -177 -49 -26 -272 -84 -346 -91 -41 -3 -76 -10 -79 -14 -7 -12 -71
-11 -79 1 -3 5 -24 10 -45 10 -99 0 -278 56 -400 125 -41 23 -85 45 -97 49
-13 4 -23 11 -23 15 0 10 -106 81 -120 81 -5 0 -10 4 -10 9 0 4 -30 31 -67 58
-38 28 -143 114 -235 191 -92 77 -211 173 -265 213 -54 41 -107 82 -117 91
-11 10 -23 18 -28 18 -4 0 -40 19 -80 43 -40 23 -86 48 -103 56 -51 23 -198
71 -217 71 -10 0 -18 4 -18 8 0 17 -152 35 -315 38 -93 1 -181 1 -195 -2z"/>
</g>
</svg>
